ply
format ascii 1.0
comment PCL generated
element vertex 36
property float x
property float y
property float z
element face 50
property list uchar int vertex_indices
end_header
0.04109 -0.1 0.023277 
-0.05 -0.1 0.018448 
-0.05 0.025 0.011915 
-0.05 0.15 0.0047573 
0.27077 -0.1 0.023277 
0.325 -0.1 0.01674 
0.45 -0.1 0.0093676 
0.45 0.025 0.0060392 
0.45 0.15 0.0029815 
-0.05 0.275 0.0056699 
-0.05 0.4 0.007404 
0.075 0.4 0.020536 
0.088604 0.4 0.023277 
0.45 0.275 0.0050008 
0.29518 0.4 0.023277 
0.325 0.4 0.01803 
0.45 0.4 0.0074842 
0.075 -0.1 0.026926 
0.2 -0.1 0.029429 
0.2 0.4 0.03293 
0.061427 0.025 0.023277 
0.075 0.13539 0.023277 
0.075 0.15 0.0229 
0.076408 0.15 0.023277 
0.29103 0.025 0.023277 
0.325 0.025 0.017011 
0.30114 0.15 0.023277 
0.325 0.15 0.017366 
0.075 0.275 0.020988 
0.08475 0.275 0.023277 
0.29946 0.275 0.023277 
0.325 0.275 0.017754 
0.075 0.025 0.025778 
0.2 0.025 0.033801 
0.2 0.15 0.037927 
0.2 0.275 0.035571 
3 0 1 2
3 2 20 0
3 20 2 21
3 21 2 3
3 21 3 22
3 21 22 23
3 24 25 5
3 5 4 24
3 7 6 25
3 25 6 5
3 26 27 25
3 25 24 26
3 8 7 27
3 27 7 25
3 28 22 3
3 3 9 28
3 23 22 28
3 28 29 23
3 11 28 9
3 9 10 11
3 29 28 11
3 11 12 29
3 30 31 26
3 26 31 27
3 13 8 27
3 27 31 13
3 14 15 30
3 30 15 31
3 16 13 31
3 31 15 16
3 20 32 17
3 17 0 20
3 33 18 32
3 32 18 17
3 21 32 20
3 23 34 21
3 21 34 33
3 21 33 32
3 4 18 33
3 33 24 4
3 24 33 34
3 34 26 24
3 29 35 34
3 34 23 29
3 12 19 35
3 35 29 12
3 26 34 30
3 30 34 35
3 30 35 14
3 14 35 19
